<?xml version="1.0" standalone="yes"?>
<svg width="91" height="91">
<path style="fill:#ffffff; stroke:none;" d="M0 0L0 91L46 91C39.9486 76.4689 22.8173 66.7819 8 64L14.9722 54L16.7639 41C19.5101 30.6311 22.4768 26.1048 22 15C37.8405 21.5949 55.2059 21.5756 71 15L69.9877 29L75.4815 42L77.0278 53L84 63C69.3533 65.7596 52.8568 76.9362 47 91L91 91L91 0L0 0z"/>
<path style="fill:#010101; stroke:none;" d="M22 15C22.2187 25.5975 19.3937 30.0705 16.7639 40L15.3966 52L8 64C23.4769 67.8111 37.8294 77.0145 46 91L53.5293 80.2778C61.029 72.4952 73.7269 65.5309 84 63L76.6034 51C72.3594 39.4773 70.7505 27.0897 71 15C59.6764 18.2621 45.7829 22.3186 33.5756 19.7091L22 15z"/>
<path style="fill:#ffffff; stroke:none;" d="M28 24C28.3207 34.0617 22.5703 51.7104 17 60C25.6841 60.2818 42.4501 72.9969 46 81C52.0841 73.5153 64.0571 60.5924 74 59C68.7063 50.0736 64.5704 34.189 65 24C54.1161 27.0141 38.9468 26.8962 28 24z"/>
</svg>
