<?xml version="1.0" standalone="yes"?>
<svg width="91" height="91">
<path style="fill:#ffffff; stroke:none;" d="M0 0L0 34C7.9966 32.4934 12.8848 31.2103 16 23L22 26C18.6278 31.0028 16.3205 36.6942 10 38C13.2868 43.5422 13.9993 47.6199 14 54L8 53C7.99421 45.5019 6.29972 41.4533 0 37L0 91L17 91C17.3216 83.5087 14.523 71.2209 19 66C21.3368 72.0889 23.2642 75.2943 23 82C30.4257 79.8651 33.4066 79.8787 41 81C35.5451 86.9891 26.614 86.83 19 90C23.9691 92.0851 30.6497 91 36 91L72 91C65.0832 85.2688 56.9671 87.5514 51 81C57.8126 79.9992 61.3489 80.1038 68 82C67.7891 75.224 70.6634 72.045 73 66C77.6802 71.458 73.6662 83.2248 74 91L91 91L91 37C84.743 41.4602 84.0008 45.7057 84 53L78 54C78.0007 47.6199 78.7132 43.5422 82 38C75.6795 36.6942 73.3722 31.0028 70 26C77.9477 24.8885 82.6404 32.424 91 34L91 0L46 0C49.5441 8.50951 53.5561 10.2534 62 13L61 20C54.6627 17.1944 49.097 16.8708 46 10C41.8396 14.9206 39.2502 16.9964 33 19L32 12C39.4174 10.2771 42.1286 6.89414 45 0L0 0z"/>
<path style="fill:#010101; stroke:none;" d="M45 0C41.3291 6.2816 39.1246 9.65582 32 12L33 19C39.0529 17.6116 43.1014 16.3175 45 10C49.0394 16.6515 53.8651 17.6792 61 20L62 13C53.5204 9.24593 51.344 6.27617 45 0M16 23C11.8202 30.493 7.97085 32.0354 0 34C2.10346 41.494 7.96996 44.4956 8 53L14 54C14 47.6814 14.0908 43.1249 10 38C16.6055 37.2467 19.3541 31.5943 22 26L16 23M70 26C72.6459 31.5943 75.3945 37.2467 82 38C77.9091 43.1249 78 47.6814 78 54L84 53C84.0065 44.6054 88.9165 41.4258 91 34C83.0364 32.032 77.8674 24.1688 70 26M18 66C13.9003 71.0241 17.1506 83.704 17 91C24.4339 88.8584 36.93 87.2913 41 81C33.5289 79.2724 30.1908 79.0157 23 82C23.5413 75.0729 23.0399 71.2249 18 66M73 66C69.5265 72.0462 67.4641 74.892 68 82C61.4639 79.3372 57.7972 79.4462 51 81C54.9145 87.051 66.8329 88.9353 74 91C73.8397 83.2348 78.8855 70.5386 73 66z"/>
</svg>
